<?xml version="1.0" encoding="utf-8"?>
<!-- Generator: Adobe Illustrator 15.0.0, SVG Export Plug-In . SVG Version: 6.00 Build 0)  -->
<!DOCTYPE svg PUBLIC "-//W3C//DTD SVG 1.1//EN" "http://www.w3.org/Graphics/SVG/1.1/DTD/svg11.dtd">
<svg version="1.1" id="Ebene_1" xmlns="http://www.w3.org/2000/svg" xmlns:xlink="http://www.w3.org/1999/xlink" x="0px" y="0px"
	 width="548.75px" height="136.25px" viewBox="0 0 548.75 136.25" enable-background="new 0 0 548.75 136.25" xml:space="preserve">
<g>
	<path fill="#86BD3D" d="M286.552,4.686l-29.867,27.968l-29.863,27.969l0.015,0.015l-22.65,34.052l-22.663,34.062l29.86-27.97
		l29.87-27.974l-0.009-0.017l22.644-34.036L286.552,4.686z M233.05,75.042c-4.183-0.425-7.225-4.16-6.798-8.34
		c0.426-4.182,4.164-7.228,8.343-6.801c4.183,0.427,7.229,4.167,6.801,8.347C240.967,72.43,237.233,75.467,233.05,75.042z"/>
	<path fill="#010202" d="M213.045,65.35c1.172-11.46,11.444-19.826,22.9-18.656c1.417,0.146,2.777,0.425,4.084,0.829l1.76-1.644
		c-1.774-0.657-3.66-1.098-5.626-1.302c-0.187-0.018-0.362-0.027-0.542-0.042l-6.504-15.467l-6.554-15.577l0.17,16.897l0.164,16.839
		c-2.411,1.311-4.571,3.034-6.378,5.097l-7.646-3.117l-8.518-3.476l6.569,6.443l5.935,5.821c-0.997,2.201-1.668,4.599-1.928,7.14
		c-0.019,0.184-0.028,0.366-0.042,0.551l-15.462,6.498l-15.577,6.552l16.898-0.167l16.835-0.167
		c0.116,0.219,0.241,0.426,0.367,0.644l1.325-1.994C213.467,73.567,212.617,69.539,213.045,65.35z"/>
	<path fill="#010202" d="M287.42,56.232l-16.895,0.164l-16.445,0.163c-0.209-0.383-0.426-0.753-0.652-1.125l-1.309,1.973
		c1.981,3.588,2.933,7.8,2.487,12.183c-1.169,11.461-11.444,19.824-22.899,18.656c-1.729-0.177-3.389-0.561-4.954-1.129
		l-1.721,1.611c2.018,0.835,4.182,1.4,6.458,1.628c0.052,0.006,0.113,0.006,0.167,0.011l6.55,15.574l6.548,15.573l-0.17-16.899
		l-0.163-16.726c2.72-1.424,5.146-3.376,7.112-5.727l8.149,3.32l8.514,3.477l-6.571-6.445l-6.498-6.37
		c0.808-1.976,1.359-4.099,1.587-6.334c0.022-0.232,0.036-0.461,0.05-0.687l15.071-6.343L287.42,56.232z"/>
</g>
<g>
	<rect x="0.962" y="15.419" fill="none" width="199" height="134"/>
	<path fill="#010202" d="M52.424,101.98c-0.181,0.972-0.631,2.23-1.35,3.779c-0.72,1.548-1.819,3.041-3.294,4.482
		c-1.477,1.439-3.51,2.682-6.102,3.727c-2.592,1.042-5.832,1.565-9.72,1.565c-2.089,0-4.249-0.181-6.48-0.54
		c-2.233-0.361-4.212-1.261-5.94-2.7c-1.728-1.44-3.24-3.187-4.536-5.237c-1.296-2.053-2.484-4.699-3.564-7.938l8.1-0.216
		c1.296,2.735,2.916,4.914,4.86,6.533c1.944,1.621,4.463,2.431,7.56,2.431c3.959,0,7.074-0.647,9.342-1.944
		c2.268-1.296,3.402-2.772,3.402-4.428V89.83c-0.864,0.361-1.765,0.684-2.7,0.973c-0.937,0.286-1.873,0.574-2.808,0.863
		c-2.953,0.791-5.869,1.188-8.748,1.188c-7.128,0-13.068-2.375-17.82-7.127c-4.608-4.823-6.912-10.871-6.912-18.145
		c0-8.279,2.376-14.939,7.128-19.98c4.896-5.327,11.124-7.992,18.684-7.992c2.16,0,4.355,0.396,6.588,1.188
		c2.376,0.794,4.607,1.765,6.696,2.916v-3.132h7.776v59.725l0.108,0.107C52.694,100.484,52.604,101.008,52.424,101.98z
		 M44.81,51.706c-0.505-0.359-1.117-0.81-1.836-1.351c-0.721-0.539-1.585-1.025-2.592-1.457c-1.152-0.504-2.359-0.881-3.618-1.135
		c-1.26-0.251-2.646-0.377-4.158-0.377c-5.329,0-9.792,1.908-13.392,5.723c-3.528,3.745-5.292,8.533-5.292,14.365
		c0,5.473,1.583,9.792,4.752,12.959c1.656,1.658,3.51,2.899,5.562,3.727c2.052,0.828,4.445,1.242,7.182,1.242
		c3.24,0,5.94-0.432,8.1-1.297c1.007-0.359,1.944-0.756,2.808-1.188c0.864-0.432,1.691-0.863,2.484-1.296V51.706z"/>
	<path fill="#010202" d="M71.054,65.746v1.943c0.216,4.682,1.979,8.678,5.292,11.988c1.799,1.729,3.78,3.062,5.94,3.996
		c2.16,0.937,4.607,1.404,7.344,1.404c3.672,0,6.983-0.827,9.936-2.484c1.583-0.863,3.024-1.764,4.32-2.699s2.843-2.231,4.644-3.889
		v9.612c-1.225,0.937-2.467,1.8-3.726,2.592c-1.261,0.793-2.646,1.513-4.158,2.16c-3.528,1.655-7.344,2.483-11.448,2.483
		c-7.633,0-13.932-2.555-18.9-7.668c-4.897-5.254-7.344-11.807-7.344-19.656c0-7.271,2.195-13.354,6.588-18.252
		c4.463-5.111,10.152-7.668,17.064-7.668c6.696,0,12.204,2.377,16.524,7.129c2.088,2.305,3.672,4.986,4.752,8.046
		c1.08,3.062,1.62,6.714,1.62,10.962L71.054,65.746L71.054,65.746z M99.999,59.482c-0.361-1.729-0.864-3.349-1.512-4.86
		c-0.648-1.513-1.477-2.771-2.484-3.78c-1.08-1.08-2.376-1.926-3.888-2.537c-1.512-0.611-3.312-0.918-5.4-0.918
		c-4.752,0-8.532,1.765-11.34,5.291c-0.648,0.793-1.242,1.801-1.782,3.024c-0.54,1.226-0.991,2.448-1.35,3.672h27.756V59.482z"/>
	<path fill="#010202" d="M162.637,85.185c-5.041,5.113-11.269,7.668-18.684,7.668c-7.489,0-13.68-2.555-18.576-7.668
		c-5.041-5.254-7.56-11.556-7.56-18.899c0-7.487,2.484-13.824,7.452-19.009c4.895-5.111,11.124-7.668,18.684-7.668
		c7.415,0,13.608,2.557,18.576,7.668c4.968,5.185,7.452,11.521,7.452,19.009C169.981,73.63,167.533,79.931,162.637,85.185z
		 M156.589,53.002c-3.529-3.742-7.741-5.615-12.636-5.615c-4.968,0-9.18,1.836-12.636,5.508c-3.529,3.601-5.292,8.064-5.292,13.392
		c0,5.257,1.763,9.649,5.292,13.176c3.527,3.745,7.739,5.616,12.636,5.616c4.823,0,9.035-1.836,12.636-5.508
		c3.456-3.672,5.184-8.1,5.184-13.284C161.773,61.031,160.045,56.603,156.589,53.002z"/>
</g>
<g>
	<rect x="291.95" y="15.419" fill="none" width="303" height="134"/>
	<path fill="#010202" d="M335.69,116.721V89.829c-0.864,0.361-1.766,0.684-2.7,0.973c-0.937,0.286-1.873,0.574-2.81,0.863
		c-2.808,0.791-5.688,1.188-8.64,1.188c-7.272,0-13.213-2.375-17.819-7.127c-4.682-4.752-7.021-10.801-7.021-18.145
		c0-8.135,2.376-14.796,7.128-19.98c4.969-5.327,11.195-7.992,18.684-7.992c2.16,0,4.355,0.396,6.588,1.188
		c2.378,0.794,4.607,1.765,6.697,2.916v-3.132h7.775v76.14H335.69L335.69,116.721z M335.797,51.706
		c-0.506-0.359-1.117-0.81-1.836-1.351c-0.721-0.539-1.586-1.025-2.593-1.457c-2.376-1.008-4.933-1.512-7.668-1.512
		c-5.473,0-9.937,1.908-13.392,5.723c-3.603,3.745-5.4,8.533-5.4,14.365c0,5.473,1.583,9.792,4.752,12.959
		c1.656,1.658,3.51,2.899,5.562,3.727c2.052,0.828,4.443,1.242,7.182,1.242c3.24,0,5.939-0.432,8.1-1.297
		c1.008-0.359,1.944-0.756,2.81-1.188c0.862-0.432,1.69-0.863,2.483-1.296V51.706z"/>
	<path fill="#010202" d="M390.877,91.882v-6.155c-1.658,2.232-3.387,3.816-5.186,4.752c-2.809,1.582-5.688,2.375-8.641,2.375
		c-6.479,0-11.521-1.801-15.119-5.399c-3.602-3.6-5.4-8.784-5.4-15.552v-31.32h7.885v30.24c0,4.608,1.043,8.137,3.133,10.584
		c2.086,2.448,5.039,3.672,8.855,3.672c3.311,0,6.264-1.08,8.855-3.24c2.662-2.088,4.535-4.175,5.615-6.264V40.583h7.884v51.3
		L390.877,91.882L390.877,91.882z"/>
	<path fill="#010202" d="M417.662,65.746v1.943c0.215,4.682,1.979,8.678,5.291,11.988c1.799,1.729,3.781,3.062,5.941,3.996
		c2.16,0.937,4.605,1.404,7.344,1.404c3.672,0,6.982-0.827,9.936-2.484c1.582-0.863,3.023-1.764,4.32-2.699
		c1.295-0.935,2.844-2.231,4.645-3.889v9.612c-1.227,0.937-2.469,1.8-3.727,2.592c-1.262,0.793-2.646,1.513-4.158,2.16
		c-3.527,1.655-7.344,2.483-11.447,2.483c-7.633,0-13.934-2.555-18.9-7.668c-4.896-5.254-7.344-11.807-7.344-19.656
		c0-7.271,2.195-13.354,6.588-18.252c4.463-5.111,10.152-7.668,17.062-7.668c6.697,0,12.205,2.377,16.525,7.129
		c2.088,2.305,3.672,4.986,4.752,8.046c1.08,3.062,1.619,6.714,1.619,10.962L417.662,65.746L417.662,65.746z M446.605,59.482
		c-0.361-1.729-0.863-3.349-1.512-4.86c-0.648-1.513-1.479-2.771-2.484-3.78c-1.08-1.08-2.375-1.926-3.887-2.537
		c-1.514-0.611-3.312-0.918-5.4-0.918c-4.752,0-8.533,1.765-11.34,5.291c-0.648,0.793-1.242,1.801-1.783,3.024
		c-0.539,1.226-0.99,2.448-1.352,3.672h27.758V59.482z"/>
	<path fill="#010202" d="M491.748,88.534c-3.238,2.951-7.271,4.428-12.096,4.428c-3.816,0-7.057-0.612-9.719-1.836
		c-1.369-0.577-2.539-1.134-3.512-1.674s-1.928-1.097-2.861-1.675v-8.424c1.871,1.226,3.457,2.144,4.752,2.754
		c1.297,0.613,2.592,1.135,3.889,1.566c2.592,0.937,5.076,1.404,7.451,1.404c2.809,0,5.111-0.684,6.912-2.053
		c1.656-1.223,2.482-2.951,2.482-5.184c0-1.512-0.611-2.879-1.836-4.104c-1.439-1.367-4.752-2.987-9.936-4.86
		c-2.09-0.792-3.941-1.637-5.562-2.538c-1.617-0.899-3.006-1.926-4.156-3.078c-2.447-2.375-3.674-5.436-3.674-9.18
		c0-4.175,1.73-7.631,5.186-10.368c1.656-1.296,3.42-2.304,5.293-3.024c1.871-0.719,3.887-1.08,6.047-1.08
		c3.168,0,6.084,0.506,8.748,1.513c2.447,0.937,4.465,2.089,6.049,3.456v8.855c-1.873-1.439-3.385-2.5-4.535-3.186
		c-1.152-0.684-2.27-1.277-3.35-1.782c-2.232-0.935-4.393-1.403-6.479-1.403c-1.586,0-2.936,0.18-4.051,0.539
		c-1.117,0.361-2.07,0.864-2.861,1.513c-1.584,1.512-2.377,3.132-2.377,4.86c0,1.873,0.791,3.385,2.377,4.535
		c0.936,0.648,2.016,1.279,3.24,1.891c1.223,0.612,2.662,1.206,4.318,1.781c4.391,1.512,7.955,3.386,10.693,5.616
		c3.021,2.376,4.533,5.761,4.533,10.152C496.715,82.054,495.061,85.582,491.748,88.534z"/>
	<path fill="#010202" d="M537.377,91.288c-0.9,0.323-1.746,0.594-2.539,0.81c-0.793,0.217-1.639,0.395-2.535,0.541
		c-0.902,0.143-1.855,0.215-2.863,0.215c-3.887,0-6.949-1.08-9.18-3.239c-1.227-1.151-2.105-2.484-2.646-3.996
		c-0.541-1.513-0.811-3.167-0.811-4.968V47.602h-13.068V40.69h13.068V27.514l4.428-3.023h3.457v16.092h13.607v6.912h-13.607v29.592
		c0,1.943,0.088,3.439,0.27,4.482c0.18,1.045,0.449,1.746,0.811,2.105c0.287,0.361,0.828,0.686,1.621,0.973
		c0.791,0.288,1.941,0.432,3.455,0.432c1.15,0,2.377-0.217,3.672-0.648c0.719-0.216,1.494-0.502,2.32-0.863
		c0.828-0.359,2.145-0.936,3.943-1.729v8.1C539.412,90.513,538.277,90.964,537.377,91.288z"/>
</g>
</svg>
