<?xml version="1.0" encoding="utf-8"?>
<!-- Generator: Adobe Illustrator 15.0.0, SVG Export Plug-In . SVG Version: 6.00 Build 0)  -->
<!DOCTYPE svg PUBLIC "-//W3C//DTD SVG 1.1//EN" "http://www.w3.org/Graphics/SVG/1.1/DTD/svg11.dtd">
<svg version="1.1" id="Ebene_1" xmlns="http://www.w3.org/2000/svg" xmlns:xlink="http://www.w3.org/1999/xlink" x="0px" y="0px"
	 width="5057.071px" height="787.535px" viewBox="0 0 5057.071 787.535" enable-background="new 0 0 5057.071 787.535"
	 xml:space="preserve">
<linearGradient id="SVGID_1_" gradientUnits="userSpaceOnUse" x1="416.0352" y1="376.9766" x2="416.0351" y2="21.5025">
	<stop  offset="0" style="stop-color:#3F3E32"/>
	<stop  offset="1" style="stop-color:#545454"/>
</linearGradient>
<path fill="url(#SVGID_1_)" d="M773.15,318.787C726.364,43.328,359.055-68.372,152.419,128.518
	C-54.202,325.436,62.981,675.454,352.063,719.982c137.105,21.139,286.427,3.493,425.805,4.518
	C776.815,591.687,795.356,449.412,773.15,318.787z"/>
<path fill="#FFCC00" d="M2673.675,367.491c0,150.543-120.649,272.586-269.475,272.586c-148.812,0-269.461-122.043-269.461-272.586
	c0-150.518,120.649-272.561,269.461-272.561C2553.025,94.931,2673.675,216.974,2673.675,367.491z"/>
<linearGradient id="SVGID_2_" gradientUnits="userSpaceOnUse" x1="1037.9883" y1="729.8701" x2="1037.9883" y2="139.5996">
	<stop  offset="0" style="stop-color:#3F3E32"/>
	<stop  offset="1" style="stop-color:#545454"/>
</linearGradient>
<path fill="url(#SVGID_2_)" d="M834.968,154.148c32.407-0.541,65.099-1.507,98.074-2.842c32.963-1.393,65.968-2.557,98.973-3.637
	c32.393-1.051,65.055-2.244,98.059-3.608c32.964-1.308,65.682-2.814,98.033-4.462c0.612,10.713,1.095,21.595,1.394,32.565
	c0.283,10.967,0.438,22.104,0.438,33.358c0,10.684,0.158,21.54,0.483,32.536c0.298,10.938,0.74,22.078,1.363,33.303
	c-31.781,0.568-63.876,1.191-96.198,1.961c-32.438,0.852-65.368,1.475-98.999,2.045c0,17.077,0,34.693,0,52.566
	c0,17.961,0,36.06,0,54.19c28.089-1.563,55.908-3.041,83.385-4.378c27.491-1.279,54.67-2.3,81.564-2.812c0,9.092,0,18.157,0,27.337
	c0,9.092,0,18.157,0,27.249c0,12.333,0.158,24.494,0.485,36.598c0.284,12.021,0.738,24.439,1.364,37.338
	c-5.513,0-10.856-0.141-16.027-0.398c-5.199-0.31-10.572-0.424-16.07-0.424c-5.483,0-10.868-0.114-16.038-0.398
	c-5.186-0.312-10.5-0.427-16.042-0.427c-17.106,0-34.014-0.141-50.862-0.398c-16.794-0.283-34.041-0.652-51.759-1.164
	c0,15.459,0.155,31.144,0.468,46.941c0.284,15.743,0.727,31.969,1.379,48.563c10.981-0.512,22.137-0.939,33.446-1.168
	c11.295-0.254,22.446-0.708,33.458-1.249c22.59-0.513,45.052-0.796,67.328-0.796c22.28,0,44.443,0,66.451,0
	c0,5.911,0.141,11.652,0.438,17.276c0.299,5.598,0.782,11.368,1.379,17.221c0.582,17.246,1.237,34.353,1.819,51.46
	c0.639,17.135,1.235,34.239,1.891,51.375c-33.646-0.542-67.858-1.051-102.694-1.592c-34.807-0.568-69.333-1.109-103.517-1.648
	c-34.836,0-69.518-0.228-104.029-0.767c-34.494-0.482-68.876-1.138-103.074-1.621c0.567-30.517,1.207-58.222,1.831-83.112
	c0.598-24.922,1.507-46.688,2.757-65.412c1.18-25.177,2.259-44.87,3.197-59.018c0.909-14.181,1.393-22.365,1.393-24.524V386.187
	c0-1.051-0.355-5.738-0.938-14.063c-0.64-8.299-0.938-18.868-0.938-31.74c-0.61-13.329-1.249-28.645-1.818-45.722
	c-0.61-17.162-0.896-34.523-0.896-52.256c0-15.485-0.185-30.772-0.482-45.719c-0.312-14.977-0.469-28.899-0.469-41.742V154.148z"/>
<linearGradient id="SVGID_3_" gradientUnits="userSpaceOnUse" x1="1618.4248" y1="723.1719" x2="1618.4248" y2="132.1553">
	<stop  offset="0" style="stop-color:#3F3E32"/>
	<stop  offset="1" style="stop-color:#545454"/>
</linearGradient>
<path fill="url(#SVGID_3_)" d="M1240.895,455.01c-1.82-94.794,37.109-172.312,116.843-232.523
	c79.706-60.212,170.591-90.331,272.63-90.331c3.055,0,5.939,0,8.696,0c2.768,0,5.34,0,7.798,0
	c92.222,0,173.049,21.993,242.356,65.865c69.373,43.846,104.95,115.594,106.797,215.218c-1.847,84.022-36.2,156.683-103.104,217.975
	c-66.89,61.318-161.455,91.95-283.642,91.95c-1.831,0-3.807,0-5.939,0c-2.16,0-4.419,0-6.877,0c-0.608,0-1.249,0-1.832,0
	c-0.582,0-1.234,0-1.831,0c-0.583,0-1.238,0-1.806,0c-0.638,0-1.25,0-1.861,0c-100.83,0.541-182.796-25.147-246.033-77.091
	c-63.253-51.884-97.308-115.335-102.194-190.325V455.01z M1609.269,600.354c50.723,0.483,88.003-13.042,111.827-40.606
	c23.813-27.506,39.085-57.909,45.821-91.098c1.847-8.583,3.195-17.136,4.105-25.689c0.951-8.553,1.393-16.907,1.393-24.89
	c0-1.109,0-2.046,0-2.815c0-0.881,0-1.504,0-2.017c0-1.079,0-2.188,0-3.21c0-1.079,0-2.159,0-3.213
	c-1.223-37.508-12.374-71.861-33.473-103.174c-21.027-31.372-54.856-47.001-101.242-47.001c-0.612,0-1.394,0-2.289,0
	c-0.95,0-1.989,0-3.21,0c-53.763,0-94.554,18.271-122.358,54.957c-27.805,36.768-42.324,78.907-43.488,126.505
	c0,0.567,0,1.08,0,1.562c0,0.626,0,1.021,0,1.25c0,0.283,0,0.711,0,1.164c0,1.139,0,2.046,0,2.842c0,0.825,0,1.507,0,2.019
	c1.164,37.479,13.27,72.031,36.158,103.602c22.933,31.626,58.492,48.476,106.756,50.55V600.354z"/>
<linearGradient id="SVGID_4_" gradientUnits="userSpaceOnUse" x1="3690.2744" y1="731.3184" x2="3690.2744" y2="141.0479">
	<stop  offset="0" style="stop-color:#3F3E32"/>
	<stop  offset="1" style="stop-color:#545454"/>
</linearGradient>
<path fill="url(#SVGID_4_)" d="M3487.245,155.597c32.367-0.538,65.073-1.504,98.062-2.841c32.979-1.394,65.994-2.558,98.97-3.638
	c32.394-1.051,65.087-2.244,98.104-3.608c32.935-1.308,65.64-2.812,98.021-4.462c0.567,10.713,1.036,21.596,1.363,32.565
	c0.311,10.968,0.468,22.107,0.468,33.358c0,10.684,0.141,21.54,0.469,32.536c0.283,10.938,0.755,22.078,1.334,33.304
	c-31.752,0.567-63.849,1.193-96.184,1.96c-32.422,0.852-65.383,1.478-98.969,2.046c0,17.077,0,34.695,0,52.568
	c0,17.958,0,36.06,0,54.188c28.059-1.562,55.904-3.04,83.369-4.375c27.478-1.278,54.656-2.303,81.564-2.814
	c0,9.094,0,18.156,0,27.336c0,9.092,0,18.157,0,27.249c0,12.334,0.129,24.495,0.472,36.601c0.298,12.018,0.737,24.437,1.363,37.338
	c-5.501,0-10.841-0.144-16-0.397c-5.227-0.313-10.584-0.428-16.067-0.428c-5.514,0-10.883-0.114-16.057-0.397
	c-5.17-0.313-10.525-0.428-16.012-0.428c-17.147,0-34.066-0.141-50.89-0.397c-16.781-0.284-34.043-0.653-51.743-1.165
	c0,15.459,0.154,31.144,0.438,46.942c0.284,15.742,0.737,31.968,1.393,48.562c10.968-0.512,22.122-0.939,33.429-1.165
	c11.295-0.257,22.465-0.711,33.446-1.252c22.605-0.509,45.066-0.793,67.373-0.793c22.292,0,44.413,0,66.421,0
	c0,5.908,0.155,11.649,0.439,17.276c0.299,5.598,0.77,11.365,1.407,17.218c0.597,17.25,1.224,34.356,1.803,51.46
	c0.655,17.136,1.237,34.242,1.905,51.375c-33.687-0.539-67.87-1.051-102.707-1.592c-34.821-0.568-69.348-1.106-103.517-1.647
	c-34.821,0-69.517-0.226-103.999-0.767c-34.538-0.483-68.921-1.136-103.104-1.618c0.582-30.521,1.177-58.226,1.791-83.115
	c0.623-24.92,1.545-46.688,2.769-65.412c1.208-25.178,2.288-44.867,3.197-59.019c0.922-14.181,1.391-22.365,1.391-24.524V387.638
	c0-1.054-0.325-5.741-0.922-14.066c-0.641-8.299-0.925-18.868-0.925-31.74c-0.597-13.326-1.249-28.642-1.847-45.719
	c-0.567-17.165-0.895-34.526-0.895-52.256c0-15.488-0.17-30.774-0.483-45.722c-0.284-14.974-0.442-28.899-0.442-41.742V155.597z"/>
<linearGradient id="SVGID_5_" gradientUnits="userSpaceOnUse" x1="3092.7666" y1="723.1631" x2="3092.7666" y2="132.1562">
	<stop  offset="0" style="stop-color:#3F3E32"/>
	<stop  offset="1" style="stop-color:#545454"/>
</linearGradient>
<path fill="url(#SVGID_5_)" d="M2771.567,144.146c17.716,0.538,35.264,0.852,52.695,0.852c17.391,0,34.965,0,52.683,0
	c17.7,0,35.419,0,53.178,0c17.704,0,35.108,0,52.186,0c-1.208,29.438-1.831,59.048-1.831,88.713c0,29.722,0.31,59.586,0.936,89.51
	c0,1.105,0,2.414,0,4.062c0,1.562,0,3.21,0,4.831c0,10.115,0,20.46,0,30.886c0,10.402,0,21.027,0,31.685
	c0,50.834,6.707,96.015,20.174,135.397c13.428,39.27,44.272,59.501,92.563,60.525c52.525,0,84.604-18.669,96.198-56.206
	c11.608-37.423,17.106-78.683,16.524-123.634c0-3.693,0-7.614,0-11.623c0-4.062,0-8.155,0-12.475c0-6.902,0-13.779,0-20.457
	s0-13.271,0-19.664c0-10.2,0-20.316,0-30.517c0-10.201,0-20.574,0-31.313c0-12.334-0.185-24.639-0.468-36.999
	c-0.325-12.275-0.752-24.551-1.408-36.911c-0.582-12.816-1.035-25.401-1.334-37.677c-0.357-12.419-0.497-24.894-0.497-37.795
	c17.703,0,35.447-0.141,53.181-0.369c17.715-0.254,35.135-0.652,52.256-1.278c17.7-0.512,35.248-0.937,52.68-1.165
	c17.404-0.228,34.936-0.368,52.683-0.368c-0.641,24.636-1.094,49.385-1.363,74.278c-0.343,24.86-0.456,49.61-0.456,74.249
	c0,24.636-0.185,49.411-0.498,74.305c-0.299,24.893-0.737,49.643-1.378,74.22c-6.704,110.338-41.968,186.916-105.817,229.737
	c-63.834,42.767-145.87,64.219-246.062,64.219c-87.973,0-155.957-25.546-203.894-76.748
	c-47.952-51.062-73.767-109.001-77.474-173.815c0-18.16-0.141-36.402-0.428-54.614c-0.283-18.16-0.767-36.429-1.378-54.588
	c-0.594-36.37-1.235-72.771-1.817-109.2c-0.626-36.369-1.234-72.797-1.832-109.199V144.146z"/>
<linearGradient id="SVGID_6_" gradientUnits="userSpaceOnUse" x1="4155.5459" y1="726.4023" x2="4155.5459" y2="128.916">
	<stop  offset="0" style="stop-color:#3F3E32"/>
	<stop  offset="1" style="stop-color:#545454"/>
</linearGradient>
<path fill="url(#SVGID_6_)" d="M3939.292,333.705c4.872-58.366,44.583-105.761,119.102-142.104
	c74.521-36.401,156.413-57.315,245.609-62.685c1.191,8.553,2.756,17.445,4.6,26.54c1.806,9.092,3.327,18.157,4.576,27.308
	c3.041,13.326,5.941,26.71,8.709,40.121c2.756,13.41,5.303,26.54,7.758,39.354c-6.693,0.542-13.596,1.08-20.602,1.621
	c-7.031,0.513-13.896,0.768-20.614,0.768c-3.056,0-5.966,0.143-8.679,0.368c-2.771,0.313-5.686,0.482-8.756,0.482
	c-26.865,1.054-51.729,4.548-74.673,10.43c-22.903,5.882-36.513,19.266-40.762,40.124c0,3.239,1.492,6.449,4.562,9.633
	c3.053,3.239,7.33,6.42,12.828,9.633c7.928,4.828,17.248,9.519,27.945,14.037c10.728,4.573,21.867,9.007,33.458,13.267
	c1.82,1.139,3.796,2.049,5.97,2.786c2.131,0.825,4.418,1.533,6.861,2.046c5.514,3.213,11.295,6.394,17.42,9.606
	c6.109,3.21,12.231,6.479,18.326,9.659c22.605,12.305,43.092,26.625,61.393,42.965c18.355,16.337,27.477,37.906,27.477,64.616
	c0,0.597,0,1.106,0,1.647s0,1.024,0,1.592c-1.817,61.576-36.314,110.932-103.561,148.186
	c-67.186,37.168-140.768,61.689-220.828,73.424c-9.787,1.65-19.406,3.099-28.855,4.462c-9.488,1.335-19.11,2.216-28.884,2.812
	c-3.651-23.073-7.289-46.062-11.011-69.076c-3.652-22.987-7.942-45.806-12.829-68.312c1.249,0,2.771,0,4.603,0
	c1.818,0,3.638,0,5.514,0c9.146,0,19.377-0.226,30.687-0.737c11.296-0.57,22.749-1.677,34.383-3.239
	c26.839-3.213,51.604-9.065,74.193-17.618c22.603-8.554,34.239-20.401,34.837-35.349c-0.598-8.583-7.359-16.738-20.162-24.551
	c-12.843-7.729-26.566-15.6-41.256-23.641c-4.264-2.133-8.542-4.319-12.816-6.452c-4.25-2.131-8.524-4.261-12.829-6.42
	c-30.532-14.947-58.523-32.68-83.841-52.996c-25.347-20.288-38.643-48.191-39.852-83.511V333.705z"/>
<linearGradient id="SVGID_7_" gradientUnits="userSpaceOnUse" x1="4674.1455" y1="720.834" x2="4674.1455" y2="151.5059">
	<stop  offset="0" style="stop-color:#3F3E32"/>
	<stop  offset="1" style="stop-color:#545454"/>
</linearGradient>
<polygon fill="url(#SVGID_7_)" points="4632.924,157.984 4717.259,157.984 4978.396,151.506 4978.396,296.054 4775.88,286.45 
	4779.562,720.834 4568.761,720.834 4570.608,286.45 4369.895,296.054 4369.895,154.716 "/>
<linearGradient id="SVGID_8_" gradientUnits="userSpaceOnUse" x1="2375.1143" y1="731.3174" x2="2375.1143" y2="28.1348">
	<stop  offset="0" style="stop-color:#3F3E32"/>
	<stop  offset="1" style="stop-color:#545454"/>
</linearGradient>
<path fill="url(#SVGID_8_)" d="M2716.242,318.614c-44.683-276.082-395.556-388.066-592.941-190.693
	c-197.386,197.371-85.401,548.273,190.708,592.942c130.967,21.168,273.599,3.464,406.737,4.518
	C2719.751,592.225,2737.439,449.582,2716.242,318.614z"/>
<path fill="#FFCC00" d="M2375.116,555.486c-97.108,0-175.805-78.682-175.805-175.778c0-97.065,78.696-175.776,175.805-175.776
	c97.082,0,175.82,78.711,175.82,175.776C2550.937,476.805,2472.198,555.486,2375.116,555.486z"/>
<path fill="#FFCC00" d="M705.863,393.858h-76.062c-10.035,104.153-97.791,185.589-204.575,185.589
	c-113.519,0-205.543-92.025-205.543-205.543c0-113.519,92.024-205.544,205.543-205.544c49.502,0,94.913,17.503,130.392,46.653
	l45.805-54.954C490.149,69.415,311.545,59.866,195.467,170.4C28.088,329.898,123.024,613.48,357.221,649.569
	c111.048,17.104,232.04,2.812,344.934,3.637C701.487,568.783,710.608,479.531,705.863,393.858z"/>
<g>
	<linearGradient id="SVGID_9_" gradientUnits="userSpaceOnUse" x1="406.7129" y1="578.457" x2="406.7129" y2="578.7598">
		<stop  offset="0" style="stop-color:#545454"/>
		<stop  offset="1" style="stop-color:#3F3E32"/>
	</linearGradient>
	<path fill="url(#SVGID_9_)" d="M408.414,578.76c-1.137-0.093-2.271-0.192-3.402-0.303
		C406.144,578.568,407.278,578.667,408.414,578.76z"/>
</g>
<g>
	<linearGradient id="SVGID_10_" gradientUnits="userSpaceOnUse" x1="463.4463" y1="575.7285" x2="463.4463" y2="576.042">
		<stop  offset="0" style="stop-color:#545454"/>
		<stop  offset="1" style="stop-color:#3F3E32"/>
	</linearGradient>
	<path fill="url(#SVGID_10_)" d="M464.264,575.729c-0.545,0.104-1.089,0.213-1.636,0.313
		C463.175,575.941,463.719,575.834,464.264,575.729z"/>
</g>
<g>
	<linearGradient id="SVGID_11_" gradientUnits="userSpaceOnUse" x1="448.5186" y1="577.9102" x2="448.5186" y2="578.3418">
		<stop  offset="0" style="stop-color:#545454"/>
		<stop  offset="1" style="stop-color:#3F3E32"/>
	</linearGradient>
	<path fill="url(#SVGID_11_)" d="M450.406,577.91c-1.256,0.153-2.513,0.301-3.775,0.432
		C447.894,578.21,449.151,578.064,450.406,577.91z"/>
</g>
<g>
	<linearGradient id="SVGID_12_" gradientUnits="userSpaceOnUse" x1="453.5527" y1="577.2715" x2="453.5527" y2="577.7188">
		<stop  offset="0" style="stop-color:#545454"/>
		<stop  offset="1" style="stop-color:#3F3E32"/>
	</linearGradient>
	<path fill="url(#SVGID_12_)" d="M455.151,577.271c-1.063,0.155-2.128,0.309-3.197,0.447
		C453.023,577.579,454.088,577.428,455.151,577.271z"/>
</g>
<g>
	<linearGradient id="SVGID_13_" gradientUnits="userSpaceOnUse" x1="411.9736" y1="578.8828" x2="411.9736" y2="579.1377">
		<stop  offset="0" style="stop-color:#545454"/>
		<stop  offset="1" style="stop-color:#3F3E32"/>
	</linearGradient>
	<path fill="url(#SVGID_13_)" d="M413.98,579.138c-1.341-0.072-2.679-0.156-4.013-0.255
		C411.302,578.981,412.64,579.064,413.98,579.138z"/>
</g>
<g>
	<linearGradient id="SVGID_14_" gradientUnits="userSpaceOnUse" x1="468.3018" y1="574.8408" x2="468.3018" y2="574.9834">
		<stop  offset="0" style="stop-color:#545454"/>
		<stop  offset="1" style="stop-color:#3F3E32"/>
	</linearGradient>
	<path fill="url(#SVGID_14_)" d="M468.627,574.841c-0.218,0.047-0.434,0.096-0.651,0.143
		C468.192,574.937,468.409,574.888,468.627,574.841z"/>
</g>
<g>
	<linearGradient id="SVGID_15_" gradientUnits="userSpaceOnUse" x1="401.4648" y1="577.9219" x2="401.4648" y2="578.2227">
		<stop  offset="0" style="stop-color:#545454"/>
		<stop  offset="1" style="stop-color:#3F3E32"/>
	</linearGradient>
	<path fill="url(#SVGID_15_)" d="M402.78,578.223c-0.878-0.096-1.755-0.194-2.631-0.301
		C401.024,578.029,401.902,578.126,402.78,578.223z"/>
</g>
<g>
	<linearGradient id="SVGID_16_" gradientUnits="userSpaceOnUse" x1="396.2373" y1="577.2832" x2="396.2373" y2="577.5225">
		<stop  offset="0" style="stop-color:#545454"/>
		<stop  offset="1" style="stop-color:#3F3E32"/>
	</linearGradient>
	<path fill="url(#SVGID_16_)" d="M397.091,577.522c-0.569-0.078-1.14-0.156-1.707-0.239
		C395.951,577.366,396.521,577.443,397.091,577.522z"/>
</g>
<g>
	<linearGradient id="SVGID_17_" gradientUnits="userSpaceOnUse" x1="391.0283" y1="576.5469" x2="391.0283" y2="576.6514">
		<stop  offset="0" style="stop-color:#545454"/>
		<stop  offset="1" style="stop-color:#3F3E32"/>
	</linearGradient>
	<path fill="url(#SVGID_17_)" d="M391.346,576.651c-0.211-0.035-0.423-0.069-0.634-0.104
		C390.923,576.583,391.135,576.616,391.346,576.651z"/>
</g>
<g>
	<linearGradient id="SVGID_18_" gradientUnits="userSpaceOnUse" x1="458.5293" y1="576.542" x2="458.5293" y2="576.9531">
		<stop  offset="0" style="stop-color:#545454"/>
		<stop  offset="1" style="stop-color:#3F3E32"/>
	</linearGradient>
	<path fill="url(#SVGID_18_)" d="M459.77,576.542c-0.825,0.14-1.651,0.281-2.48,0.411
		C458.118,576.822,458.944,576.683,459.77,576.542z"/>
</g>
<g>
	<linearGradient id="SVGID_19_" gradientUnits="userSpaceOnUse" x1="438.2744" y1="578.8799" x2="438.2744" y2="579.167">
		<stop  offset="0" style="stop-color:#545454"/>
		<stop  offset="1" style="stop-color:#3F3E32"/>
	</linearGradient>
	<path fill="url(#SVGID_19_)" d="M440.543,578.88c-1.508,0.11-3.02,0.209-4.536,0.287
		C437.523,579.088,439.035,578.991,440.543,578.88z"/>
</g>
<g>
	<linearGradient id="SVGID_20_" gradientUnits="userSpaceOnUse" x1="422.5283" y1="579.3828" x2="422.5283" y2="579.4434">
		<stop  offset="0" style="stop-color:#545454"/>
		<stop  offset="1" style="stop-color:#3F3E32"/>
	</linearGradient>
	<path fill="url(#SVGID_20_)" d="M424.89,579.443c-1.578-0.003-3.152-0.022-4.722-0.061
		C421.737,579.422,423.312,579.44,424.89,579.443z"/>
</g>
<g>
	<linearGradient id="SVGID_21_" gradientUnits="userSpaceOnUse" x1="433.0703" y1="579.1943" x2="433.0703" y2="579.373">
		<stop  offset="0" style="stop-color:#545454"/>
		<stop  offset="1" style="stop-color:#3F3E32"/>
	</linearGradient>
	<path fill="url(#SVGID_21_)" d="M435.434,579.194c-1.571,0.076-3.146,0.138-4.727,0.179
		C432.287,579.332,433.862,579.271,435.434,579.194z"/>
</g>
<g>
	<linearGradient id="SVGID_22_" gradientUnits="userSpaceOnUse" x1="417.2471" y1="579.1943" x2="417.2471" y2="579.3633">
		<stop  offset="0" style="stop-color:#545454"/>
		<stop  offset="1" style="stop-color:#3F3E32"/>
	</linearGradient>
	<path fill="url(#SVGID_22_)" d="M419.474,579.363c-1.488-0.041-2.973-0.097-4.453-0.169
		C416.501,579.267,417.985,579.321,419.474,579.363z"/>
</g>
<g>
	<linearGradient id="SVGID_23_" gradientUnits="userSpaceOnUse" x1="443.4238" y1="578.4492" x2="443.4238" y2="578.8232">
		<stop  offset="0" style="stop-color:#545454"/>
		<stop  offset="1" style="stop-color:#3F3E32"/>
	</linearGradient>
	<path fill="url(#SVGID_23_)" d="M445.533,578.449c-1.402,0.138-2.808,0.266-4.219,0.374
		C442.726,578.714,444.131,578.587,445.533,578.449z"/>
</g>
<g>
	<linearGradient id="SVGID_24_" gradientUnits="userSpaceOnUse" x1="427.8115" y1="579.3838" x2="427.8115" y2="579.4521">
		<stop  offset="0" style="stop-color:#545454"/>
		<stop  offset="1" style="stop-color:#3F3E32"/>
	</linearGradient>
	<path fill="url(#SVGID_24_)" d="M427.115,579.451c1.035-0.009,2.065-0.042,3.097-0.067c-1.596,0.038-3.195,0.06-4.8,0.062
		C425.98,579.444,426.546,579.456,427.115,579.451z"/>
</g>
</svg>
