<?xml version="1.0" encoding="utf-8"?>
<!-- Generator: Adobe Illustrator 15.0.0, SVG Export Plug-In . SVG Version: 6.00 Build 0)  -->
<!DOCTYPE svg PUBLIC "-//W3C//DTD SVG 1.1//EN" "http://www.w3.org/Graphics/SVG/1.1/DTD/svg11.dtd">
<svg version="1.1" id="Ebene_1" xmlns="http://www.w3.org/2000/svg" xmlns:xlink="http://www.w3.org/1999/xlink" x="0px" y="0px"
	 width="542.5px" height="136.25px" viewBox="0 0 542.5 136.25" enable-background="new 0 0 542.5 136.25" xml:space="preserve">
<g>
	<rect x="2.188" y="20.252" fill="none" width="270.499" height="126.011"/>
	<path fill="#020203" d="M47.696,125.65V97.671c-0.899,0.375-1.837,0.711-2.81,1.011c-0.975,0.299-1.948,0.599-2.921,0.899
		c-2.922,0.823-5.919,1.235-8.99,1.235c-7.566,0-13.747-2.472-18.54-7.416c-4.87-4.944-7.304-11.236-7.304-18.878
		c0-8.464,2.472-15.394,7.416-20.787c5.169-5.543,11.647-8.315,19.439-8.315c2.247,0,4.531,0.412,6.854,1.236
		c2.472,0.825,4.793,1.836,6.967,3.033v-3.258h8.09v79.218L47.696,125.65L47.696,125.65z M47.809,58.005
		c-0.525-0.374-1.162-0.843-1.91-1.404c-0.75-0.562-1.648-1.067-2.697-1.518c-2.472-1.048-5.132-1.572-7.978-1.572
		c-5.694,0-10.338,1.985-13.934,5.955c-3.747,3.896-5.618,8.877-5.618,14.944c0,5.694,1.646,10.188,4.943,13.484
		c1.723,1.725,3.652,3.017,5.787,3.877c2.135,0.862,4.625,1.292,7.473,1.292c3.371,0,6.18-0.449,8.428-1.349
		c1.048-0.374,2.022-0.786,2.921-1.235c0.899-0.45,1.76-0.899,2.585-1.349V58.005z"/>
	<path fill="#020203" d="M105.115,99.806v-6.405c-1.724,2.323-3.521,3.972-5.394,4.944c-2.921,1.646-5.918,2.472-8.989,2.472
		c-6.742,0-11.986-1.873-15.731-5.618c-3.747-3.745-5.618-9.139-5.618-16.181V46.432h8.203v31.462c0,4.795,1.085,8.467,3.258,11.013
		c2.172,2.547,5.243,3.82,9.215,3.82c3.444,0,6.517-1.124,9.214-3.371c2.771-2.172,4.72-4.344,5.843-6.518V46.432h8.203v53.374
		H105.115z"/>
	<path fill="#020203" d="M132.982,72.613v2.023c0.225,4.87,2.06,9.027,5.506,12.473c1.872,1.798,3.934,3.185,6.181,4.157
		c2.247,0.975,4.793,1.461,7.641,1.461c3.82,0,7.266-0.86,10.338-2.585c1.646-0.898,3.146-1.834,4.495-2.809
		c1.348-0.973,2.958-2.321,4.831-4.046v10.001c-1.274,0.975-2.566,1.873-3.876,2.697c-1.312,0.825-2.753,1.573-4.326,2.247
		c-3.672,1.723-7.642,2.584-11.911,2.584c-7.941,0-14.495-2.658-19.664-7.978c-5.096-5.468-7.642-12.285-7.642-20.451
		c0-7.565,2.284-13.895,6.854-18.99c4.645-5.317,10.562-7.978,17.754-7.978c6.967,0,12.698,2.472,17.192,7.416
		c2.172,2.398,3.82,5.188,4.944,8.371c1.124,3.186,1.686,6.986,1.686,11.405h-40.003V72.613z M163.097,66.096
		c-0.375-1.798-0.898-3.483-1.573-5.057c-0.674-1.573-1.536-2.883-2.584-3.933c-1.124-1.124-2.472-2.004-4.045-2.641
		c-1.573-0.636-3.447-0.955-5.619-0.955c-4.943,0-8.877,1.836-11.798,5.506c-0.675,0.825-1.292,1.873-1.854,3.146
		c-0.562,1.275-1.03,2.548-1.404,3.821h28.878L163.097,66.096L163.097,66.096z"/>
	<path fill="#020203" d="M210.065,96.322c-3.371,3.07-7.567,4.606-12.585,4.606c-3.972,0-7.343-0.637-10.113-1.91
		c-1.424-0.6-2.641-1.18-3.652-1.741c-1.011-0.562-2.005-1.142-2.978-1.742V86.77c1.947,1.275,3.596,2.23,4.944,2.866
		c1.349,0.637,2.697,1.18,4.045,1.629c2.697,0.975,5.281,1.461,7.754,1.461c2.921,0,5.317-0.711,7.191-2.135
		c1.723-1.273,2.584-3.071,2.584-5.394c0-1.573-0.637-2.996-1.91-4.271c-1.499-1.422-4.944-3.107-10.338-5.057
		c-2.173-0.823-4.101-1.703-5.786-2.641c-1.686-0.936-3.129-2.003-4.326-3.202c-2.548-2.472-3.821-5.655-3.821-9.551
		c0-4.344,1.798-7.939,5.394-10.788c1.723-1.348,3.558-2.396,5.507-3.146c1.946-0.748,4.045-1.124,6.292-1.124
		c3.296,0,6.33,0.525,9.102,1.573c2.546,0.975,4.645,2.174,6.293,3.596V59.8c-1.949-1.497-3.522-2.602-4.72-3.314
		c-1.199-0.711-2.359-1.329-3.483-1.854c-2.322-0.973-4.57-1.461-6.742-1.461c-1.648,0-3.053,0.188-4.213,0.562
		c-1.163,0.375-2.154,0.898-2.979,1.573c-1.648,1.572-2.472,3.258-2.472,5.056c0,1.949,0.823,3.522,2.472,4.72
		c0.973,0.675,2.097,1.331,3.371,1.967c1.273,0.637,2.771,1.255,4.495,1.854c4.568,1.573,8.276,3.522,11.124,5.844
		c3.146,2.472,4.72,5.994,4.72,10.562C215.234,89.58,213.51,93.251,210.065,96.322z"/>
	<path fill="#020203" d="M257.54,99.188c-0.938,0.337-1.817,0.618-2.641,0.843c-0.825,0.225-1.705,0.411-2.641,0.562
		c-0.938,0.149-1.93,0.225-2.978,0.225c-4.045,0-7.23-1.123-9.552-3.371c-1.274-1.197-2.19-2.584-2.753-4.157
		c-0.562-1.573-0.843-3.295-0.843-5.169V53.736h-13.594v-7.191h13.596v-13.71l4.607-3.146h3.596v16.743h14.158v7.191h-14.158v30.788
		c0,2.022,0.093,3.578,0.281,4.663c0.186,1.087,0.467,1.817,0.843,2.191c0.298,0.376,0.86,0.713,1.686,1.012
		c0.823,0.3,2.022,0.449,3.596,0.449c1.197,0,2.472-0.225,3.82-0.675c0.748-0.225,1.554-0.521,2.416-0.898
		c0.86-0.374,2.228-0.973,4.102-1.798v8.428C259.655,98.382,258.476,98.851,257.54,99.188z"/>
</g>
<g>
	<g>
		
			<linearGradient id="SVGID_1_" gradientUnits="userSpaceOnUse" x1="231.793" y1="1296.3242" x2="231.793" y2="1406.791" gradientTransform="matrix(1 0 0 -1 98.5 1417)">
			<stop  offset="0" style="stop-color:#343434"/>
			<stop  offset="0.2244" style="stop-color:#453351"/>
			<stop  offset="0.4969" style="stop-color:#5D327B"/>
			<stop  offset="0.7219" style="stop-color:#4A3259"/>
			<stop  offset="1" style="stop-color:#343434"/>
		</linearGradient>
		<path fill="url(#SVGID_1_)" d="M385.25,71.457c0.224-2.016,0.337-4.063,0.337-6.082c0-11.312-3.415-22.212-9.875-31.524
			l-31.65,21.958c-0.576-0.822-1.219-1.597-1.931-2.302l27.233-27.254c-6.416-6.408-14.401-11.183-23.1-13.806
			c-3.994-1.206-8.128-1.959-12.275-2.239l-2.592,38.476c-0.367-0.023-0.732-0.056-1.106-0.056c-0.64,0-1.267,0.043-1.886,0.112
			l-4.367-38.3c-13.271,1.513-25.543,7.774-34.559,17.632l28.442,26.013c-0.677,0.737-1.289,1.53-1.826,2.379L283.45,35.998
			c-2.618,4.173-4.664,8.686-6.096,13.433C275.791,54.622,275,59.991,275,65.388c0,2.893,0.229,5.811,0.686,8.671l38.012-6.052
			c0.153,1.006,0.394,1.982,0.719,2.922l-36.306,12.736c4.434,12.634,13.276,23.221,24.901,29.811l18.95-33.443
			c0.87,0.498,1.791,0.915,2.75,1.254l-12.695,36.273c0.758,0.266,1.52,0.514,2.282,0.746c5.196,1.57,10.582,2.369,15.991,2.369
			c0.004,0,0.009,0,0.015,0c7.062,0,13.976-1.338,20.546-3.973l-14.297-35.666c0.943-0.379,1.84-0.845,2.689-1.381l20.406,32.576
			c11.334-7.102,19.707-18.066,23.571-30.875l-0.013-0.003l0.182-0.567l-35.47-10.137l-1.49-0.524
			c0.271-0.934,0.472-1.896,0.576-2.89L385.25,71.457z"/>
	</g>
</g>
<g>
	<rect x="391.478" y="21.266" fill="none" width="175.044" height="126.009"/>
	<path fill="#010202" d="M466.54,100.82V70.593c0-5.318-1.051-9.288-3.146-11.911c-2.174-2.771-5.132-4.157-8.877-4.157
		c-2.848,0-5.394,1.162-7.642,3.483c-2.247,2.247-4.195,4.719-5.843,7.416v35.396h-8.203V70.593c0-5.243-0.975-9.251-2.921-12.022
		c-2.022-2.697-4.907-4.045-8.652-4.045c-3.446,0-6.22,0.938-8.315,2.809c-2.098,1.873-4.008,4.196-5.729,6.967v36.521h-8.203
		V47.446h8.091v6.629c1.871-2.472,3.669-4.194,5.395-5.169c2.846-1.646,5.992-2.472,9.438-2.472h1.35
		c1.498,0,2.994,0.244,4.494,0.73c1.497,0.488,2.958,1.143,4.383,1.966c2.396,1.649,4.53,4.309,6.404,7.979
		c0.674-1.048,1.479-2.097,2.416-3.146c0.937-1.048,1.929-2.096,2.979-3.146c3.146-2.921,7.079-4.382,11.798-4.382h1.349
		c5.243,0,9.552,2.135,12.923,6.405c3.146,4.27,4.72,9.626,4.72,16.068v31.912H466.54z"/>
	<path fill="#010202" d="M486.767,33.4V21.264h8.203v12.022L486.767,33.4z M486.767,100.82V47.446h8.203v53.374H486.767z"/>
	<path fill="#010202" d="M505.42,100.82V21.264h8.203v79.556H505.42z"/>
	<path fill="#010202" d="M524.185,100.82V21.264h8.203v79.556H524.185z"/>
</g>
</svg>
